<?xml version="1.0" encoding="UTF-8"?><svg id="a" xmlns="http://www.w3.org/2000/svg" viewBox="0 0 256.21 247.72"><defs><style>.b{fill:#231f20;}</style></defs>
<path class="b" d="M66.83,100.91c-4.96,.21-10.04,.47-14.8,2.01s-9.37,4.14-13.5,6.97c-5.06,3.46-9.53,7.73-13.56,12.34s-8.09,9.56-10.85,15.07c-2.6,5.18-3.91,11.2-1.82,16.8,1.92,5.12,6.07,9.25,11,11.53,11.15,5.17,24.62,2.28,35.26-2.79,3.19-1.52,6.24-3.3,9.16-5.28s5.57-3.92,7.93-6.37c2.08-2.16,4.08-4.48,5.9-6.86s3.14-5,4.27-7.77c.61-1.49-1.81-2.13-2.41-.66-1.89,4.61-4.77,8.22-8.05,11.91-3.87,4.36-8.7,7.74-13.76,10.61-9.69,5.52-21.91,9.33-33.05,6.44-5.12-1.33-9.84-4.32-12.61-8.92-2.98-4.94-2.65-10.68-.41-15.84s5.99-9.94,9.67-14.33,7.65-8.52,12.18-11.99,9.32-6.34,14.48-8.18c4.81-1.71,9.91-1.99,14.96-2.21,1.6-.07,1.61-2.57,0-2.5h0Z"/>
<path class="b" d="M75.04,114.3c-3.23-2.17-5.03-5.77-6.17-9.39-1.32-4.2-2.18-8.73-1.9-13.14,.31-4.84,2.66-8.9,5.13-12.95,1.97-3.23,4.02-6.47,6.73-9.14,3-2.95,6.57-4.55,10.79-4.73,3.8-.16,8.93-.34,12.11,2.12,1.69,1.31,2.59,3.39,3.27,5.36,.73,2.1,1.23,4.29,1.47,6.51,.48,4.51,.04,9.08-1.14,13.46-2.56,9.52-8.47,17.72-15.11,24.84-1.1,1.18,.67,2.95,1.77,1.77,6.54-7.01,12.36-15,15.26-24.24,1.49-4.73,2.19-9.77,1.82-14.73-.33-4.52-1.38-9.82-4.29-13.44s-7.63-4-11.86-4.14c-4.81-.15-9.41,.43-13.37,3.35-3.35,2.48-5.87,5.87-8.1,9.34-2.6,4.05-5.44,8.32-6.48,13.08-1.2,5.47-.27,11.31,1.28,16.62,1.32,4.54,3.52,8.9,7.54,11.61,1.34,.9,2.59-1.26,1.26-2.16h0Z"/>
<path class="b" d="M78.8,92.17c-.41,2.24-.75,4.55-.21,6.81,.44,1.84,1.48,3.57,3.08,4.62,1.69,1.11,3.97,1.28,5.86,.62s3.44-2.02,4.56-3.69c.38-.56,.11-1.38-.45-1.71-.61-.36-1.33-.11-1.71,.45-1.49,2.22-4.67,3.91-7.13,2.08-2.58-1.93-2.08-5.77-1.58-8.5,.12-.66-.18-1.35-.87-1.54-.61-.17-1.41,.21-1.54,.87h0Z"/>
<path class="b" d="M58.04,161.92c6.97,10.97,15.37,22.15,28.31,26.22,1.54,.48,2.2-1.93,.66-2.41-12.27-3.87-20.21-14.69-26.81-25.07-.86-1.35-3.02-.1-2.16,1.26h0Z"/>
<path class="b" d="M87.32,172.88c.42,8.68-3.15,16.75-7.55,24.03-4.75,7.85-10.3,15.29-15.91,22.54-.86,1.11,.17,2.61,1.51,1.96l7.36-3.53-1.71-1.71-3.2,4.2c-.85,1.12,1.09,2.63,1.96,1.51,1.77-2.27,3.75-4.32,5.96-6.16l-2.13-.88c.14,2.68-.1,5.32-.75,7.93-.29,1.16,1.21,2.17,2.09,1.22l5.88-6.42-2.13-.88-.55,7.65c-.09,1.2,1.83,1.76,2.33,.63,1.07-2.41,2.46-4.61,4.2-6.59l-2.13-.88,.32,6.65c.06,1.32,1.6,1.59,2.33,.63,10.93-14.24,18.67-30.84,22.57-48.36,.35-1.57-2.06-2.24-2.41-.66-3.86,17.34-11.5,33.68-22.32,47.77l2.33,.63-.32-6.65c-.05-1.01-1.38-1.74-2.13-.88-1.88,2.13-3.43,4.49-4.59,7.09l2.33,.63,.55-7.65c.08-1.07-1.43-1.66-2.13-.88l-5.88,6.42,2.09,1.22c.69-2.82,.98-5.69,.84-8.59-.06-1.14-1.3-1.58-2.13-.88-2.21,1.84-4.19,3.9-5.96,6.16l1.96,1.51,3.2-4.2c.84-1.1-.72-2.18-1.71-1.71l-7.36,3.53,1.51,1.96c5.83-7.53,11.63-15.24,16.53-23.42,4.52-7.53,8.1-15.96,7.67-24.91-.08-1.6-2.58-1.61-2.5,0h0Z"/>
<path class="b" d="M101.6,194.01c5.87,5.63,14.09,8.33,21.53,11.22,8.07,3.13,16.53,5.77,25.28,5.66,4.76-.06,9.43-.98,13.8-2.89,1.47-.64,.2-2.8-1.26-2.16-7.43,3.26-15.89,3.06-23.67,1.3s-15.64-4.97-23.08-8.22c-3.91-1.71-7.72-3.7-10.83-6.68-1.16-1.11-2.93,.65-1.77,1.77h0Z"/>
<path class="b" d="M160.46,180.69c-1.14,7.55-2.34,15.5,.14,22.92,1.02,3.05,2.59,5.94,4.81,8.27s4.99,3.79,7.97,4.89c3.48,1.29,7.29,2.14,10.25,4.51,1.24,1,3.02-.76,1.77-1.77-3.13-2.51-6.9-3.57-10.62-4.89s-7.03-3.26-9.29-6.63c-5.3-7.88-3.94-17.8-2.6-26.64,.24-1.57-2.17-2.25-2.41-.66h0Z"/>
<path class="b" d="M184.58,219.04c-6.25,.61-12.73,1.58-18.19,4.89-4.53,2.74-8.27,7.07-9.33,12.36-.15,.72,.34,1.66,1.21,1.58,6.47-.59,12.67-2.72,18.07-6.34,1.36-.91,.19-2.82-1.26-2.16-2.73,1.24-5.21,3.06-7.17,5.33-1.5,1.74-4.33,5.05-3.25,7.53,1.32,3.03,5.48,.65,7.4-.35,2.95-1.54,5.63-3.59,7.94-5.98,.95-.98-.33-2.83-1.51-1.96-1.93,1.42-3.67,3.04-5.16,4.93-1.19,1.52-2.64,3.28-2.3,5.34,.32,1.95,2.24,2.49,3.74,1.34,2.2-1.69,4.22-3.66,6.31-5.48l-1.96-1.51c-1.46,2.3-2.6,4.76-3.44,7.35-.16,.49,.1,1.18,.57,1.41,1.53,.75,2.94,.32,4.39-.4,1.66-.81,3.28-1.73,4.87-2.65,3.2-1.85,6.3-3.88,9.29-6.06,5.95-4.35,11.45-9.29,16.39-14.76,1.08-1.19-.69-2.96-1.77-1.77-4.51,4.99-9.47,9.57-14.85,13.61-2.62,1.96-5.33,3.8-8.12,5.51-1.46,.89-2.93,1.75-4.43,2.57-.75,.41-1.5,.81-2.26,1.2-.61,.31-1.56,.93-2.25,.59l.57,1.41c.77-2.39,1.84-4.63,3.19-6.75,.8-1.25-.94-2.41-1.96-1.51l-3.91,3.4-1.07,.93c-.19,.16-.98,.7-1.07,.93l.24,.39c-.03-.09-.05-.19-.04-.28,.07-.23,.03-.49,.12-.73,.47-1.29,1.66-2.56,2.56-3.57,1.08-1.21,2.28-2.31,3.59-3.27l-1.51-1.96c-1.69,1.74-3.54,3.28-5.61,4.55-1.01,.62-2.06,1.19-3.15,1.68-.53,.24-1.06,.48-1.61,.67-.62,.21-1.06,.37-.82-.46,.55-1.93,2.29-3.86,3.68-5.24,1.63-1.61,3.52-2.87,5.61-3.81l-1.26-2.16c-5.02,3.36-10.78,5.45-16.81,6l1.21,1.58c2.29-11.43,15.24-14.46,25.11-15.41,1.59-.15,1.6-2.66,0-2.5h0Z"/>
<path class="b" d="M210.02,224.85c2.56-2.56,5.34-5.47,5.98-9.18,.6-3.47-.77-6.67-3.03-9.25s-5.36-4.5-8.35-6.31-6.06-3.76-7.91-6.72c-2.19-3.51-1.2-7.24,.67-10.65,2.08-3.79,4.37-7.43,6.27-11.32,3.77-7.76,6.66-15.95,8.53-24.37,1.73-7.8,2.61-16.17,.38-23.97-2.11-7.36-7.16-13.21-13.67-17.11-7.25-4.34-15.68-5.98-23.99-6.79s-17.12-1.08-25.67-.8c-16.51,.53-33.13,3.37-48.2,10.34-1.9,.88-3.77,1.82-5.6,2.83-1.41,.77-.15,2.93,1.26,2.16,14.18-7.75,30.18-11.38,46.21-12.51,8.06-.56,16.16-.52,24.23-.08,8.51,.46,17.21,1.19,25.2,4.38,6.72,2.68,12.88,7.34,16.15,13.92,3.51,7.06,3.35,15.41,2.06,23.01-1.39,8.17-3.92,16.23-7.25,23.82-1.7,3.87-3.62,7.63-5.75,11.28-1.93,3.3-4.23,6.61-4.61,10.52-.7,7.15,6,11.59,11.35,14.78,2.93,1.75,6,3.76,7.91,6.67,2.02,3.07,1.76,6.4-.26,9.4-1.04,1.55-2.37,2.88-3.68,4.2-1.14,1.14,.63,2.91,1.77,1.77h0Z"/>
<path class="b" d="M66.99,174.84c-7.25,9.83-17.33,17.5-28.73,21.87l1.22,2.09c1.44-1.47,3.63-1.65,5.33-.51l-.25-1.96-5.62,6.35c-.76,.86-.05,2.54,1.22,2.09l6.94-2.45-1.41-1.84-3.46,4.85c-.88,1.24,.95,2.35,1.96,1.51l2.56-2.1-2.13-.88-.11,3.07c-.03,.87,.82,1.35,1.58,1.21l.81-.15-1.41-.57c1.65,2.73,5,3.51,7.98,2.89,3.5-.73,6.34-3.32,8.51-6.02,2.62-3.24,4.86-6.79,7.23-10.21l8.07-11.67c.92-1.33-1.25-2.58-2.16-1.26-4.48,6.48-8.87,13.04-13.45,19.44-1.79,2.5-3.82,5.03-6.6,6.48-2.26,1.18-5.88,1.62-7.42-.92-.31-.51-.85-.68-1.41-.57l-.81,.15,1.58,1.21,.11-3.07c.04-1.18-1.35-1.52-2.13-.88l-2.56,2.1,1.96,1.51,3.46-4.85c.62-.87-.42-2.19-1.41-1.84l-6.94,2.45,1.22,2.09,5.62-6.35c.56-.63,.44-1.5-.25-1.96-2.61-1.74-6.18-1.32-8.36,.9-.82,.83,0,2.56,1.22,2.09,12.07-4.62,22.56-12.61,30.23-23.01,.96-1.3-1.21-2.54-2.16-1.26h0Z"/>
<path class="b" d="M40.61,108.03c-.96,.12-1.58-.8-2.15-1.46-.66-.77-1.31-1.55-1.93-2.36-1.09-1.45-2.09-2.98-2.9-4.6-1.6-3.19-2.36-6.85-1.53-10.37,.76-3.2,3.43-7.67,7.27-5.86,3.06,1.44,5.28,4.3,6.49,7.41,1.67,4.31,1.57,9.03,1.17,13.56-.14,1.6,2.36,1.59,2.5,0,.77-8.59-.46-19.83-9.75-23.49-4.49-1.77-8.15,2.24-9.61,6.13-1.53,4.09-1,8.63,.68,12.57,1.01,2.37,2.42,4.52,3.99,6.55,1.34,1.73,3.21,4.76,5.75,4.43,1.57-.2,1.59-2.7,0-2.5h0Z"/>
<path class="b" d="M37.31,88.48c4.38,2.69,6.73,7.91,6.05,12.98-.09,.67,.64,1.25,1.25,1.25,.75,0,1.16-.58,1.25-1.25,.79-5.92-2.23-12.03-7.29-15.14-1.37-.84-2.63,1.32-1.26,2.16h0Z"/>
<path class="b" d="M43.75,131.79c-.07-.25-.17-.5-.32-.71-.22-.32-.44-.52-.75-.75-.43-.33-.97-.47-1.5-.51-.5-.04-1.07,.1-1.48,.39-.56,.39-.91,.92-1,1.6-.08,.57,.05,1.14,.33,1.64,.3,.53,.77,.91,1.33,1.12,.07,.03,.13,.04,.2,.06,.17,.03,.36,.06,.53,.05,.37-.03,.69-.11,1.01-.29,.53-.29,.86-.79,1.07-1.34s.18-1.14,.09-1.7c-.03-.19-.08-.37-.15-.55-.11-.27-.22-.55-.39-.78l-1.96,1.51c.25,.2,.45,.34,.76,.44,.2,.06,.42,.1,.63,.08,.51-.03,1-.21,1.36-.59,.31-.31,.45-.79,.32-1.22-.17-.58-.64-1.06-1.24-1.2-.29-.07-.61-.08-.91,0s-.59,.24-.78,.46c-.22,.25-.37,.54-.37,.88,0,.31,.14,.67,.37,.88s.55,.38,.88,.37,.67-.12,.88-.37c.02-.03,.04-.05,.07-.07l-.25,.2s.05-.03,.08-.05l-.3,.13s.08-.03,.12-.03l-.33,.04c.06,0,.11,0,.16,0l-.33-.04s.09,.02,.13,.03l-.3-.13s.08,.04,.11,.06l-.25-.2s.06,.06,.09,.09l-.2-.25s.03,.05,.05,.08l-.13-.3s.02,.04,.02,.06l.32-1.22s-.06,.05-.09,.08l.25-.2s-.09,.06-.14,.08l.3-.13c-.06,.03-.13,.04-.19,.05l.33-.04c-.07,0-.13,0-.2,0l.33,.04c-.07,0-.13-.03-.19-.05l.3,.13s-.09-.05-.14-.08l.25,.2-.03-.03c-.26-.2-.54-.38-.88-.37-.28,.01-.53,.09-.76,.27-.21,.16-.39,.39-.45,.65-.07,.31-.07,.7,.13,.96,.1,.14,.19,.29,.25,.45l-.13-.3c.08,.2,.14,.4,.17,.62l-.04-.33c.03,.21,.03,.41,0,.62l.04-.33c-.02,.14-.06,.28-.11,.41l.13-.3c-.04,.1-.1,.2-.17,.29l.2-.25c-.06,.07-.12,.13-.19,.19l.25-.2c-.07,.05-.14,.09-.21,.12l.3-.13c-.08,.03-.16,.06-.25,.07l.33-.04c-.08,.01-.17,.01-.25,0l.33,.04c-.07-.01-.14-.03-.2-.06l.3,.13c-.09-.04-.16-.08-.24-.14l.25,.2c-.08-.07-.16-.14-.22-.22l.2,.25c-.08-.1-.14-.21-.2-.33l.13,.3c-.05-.12-.08-.25-.1-.38l.04,.33c-.01-.11-.01-.21,0-.32l-.04,.33c.01-.09,.04-.18,.07-.27l-.13,.3c.03-.08,.08-.15,.13-.22l-.2,.25c.06-.07,.12-.13,.19-.19l-.25,.2c.07-.05,.15-.1,.23-.13l-.3,.13c.1-.04,.21-.07,.32-.09l-.33,.04c.13-.02,.27-.02,.4,0l-.33-.04c.15,.02,.29,.06,.43,.12l-.3-.13c.13,.06,.25,.13,.36,.21l-.25-.2c.1,.08,.19,.17,.27,.27l-.2-.25c.07,.09,.13,.19,.17,.29l-.13-.3c.02,.05,.04,.11,.05,.16,.08,.3,.3,.59,.57,.75s.66,.22,.96,.13c.65-.21,1.06-.86,.87-1.54h0Z"/>
<path class="b" d="M14.46,154.99c2.17,.99,4.49,1.56,6.89,1.6,2.18,.04,4.85-.24,6.76-1.38,.87-.52,1.69-1.32,1.89-2.35,.23-1.14-.41-2.22-1.42-2.74s-2.22-.72-3.32-.88c-1.16-.17-2.32-.27-3.5-.24-2.73,.07-5.36,.7-7.85,1.8-.95,.42-.73,2.12,.3,2.28,2.39,.39,4.78,.72,7.18,.98,1.68,.18,4.43,.72,5.01-1.52,.12-.48-.07-1.2-.57-1.41-1.51-.64-3.01-.83-4.63-.52s-.91,2.71,.66,2.41c.89-.17,1.86-.09,2.71,.27l-.57-1.41c.07-.26,.33-.1,0-.12s-.64,0-.96-.03c-.92-.09-1.83-.19-2.75-.3-1.81-.21-3.62-.47-5.42-.77l.3,2.28c2.1-.94,4.41-1.43,6.71-1.47,1.11-.02,2.22,.05,3.31,.25,.56,.1,1.12,.22,1.67,.38,.15,.04,.32,.07,.45,.15,.24,.13,.2,.21,.23,.08-.14,.67-1.3,.98-1.85,1.14-1.06,.32-2.16,.52-3.26,.57-2.3,.12-4.62-.28-6.72-1.24-.61-.28-1.35-.17-1.71,.45-.31,.54-.17,1.43,.45,1.71h0Z"/>
<path class="b" d="M22.32,154.69c-3.23,1.51-4.45,6.24-2.31,9.1,.39,.52,1.1,.84,1.71,.45,.52-.33,.87-1.15,.45-1.71-.11-.15-.21-.29-.3-.45-.04-.06-.07-.13-.11-.2-.02-.04-.14-.32-.07-.14s-.02-.06-.03-.1c-.03-.08-.06-.17-.08-.26-.04-.16-.08-.32-.11-.48-.04-.21-.06-.06,0,.02-.04-.05-.02-.2-.02-.27-.01-.18-.01-.36,0-.54,0-.08,.01-.15,.02-.23,.01-.19-.02-.12,0,.02-.02-.16,.07-.38,.11-.53,.04-.16,.09-.32,.14-.48,.02-.07,.06-.14,.08-.21-.1,.3-.01,.03,.02-.03,.14-.3,.32-.57,.51-.85-.17,.26-.02,.02,.03-.03,.06-.07,.12-.13,.18-.2,.1-.11,.22-.2,.33-.31,.2-.19-.18,.11,.03-.02,.08-.05,.15-.1,.22-.15,.15-.1,.31-.18,.48-.26,.59-.28,.79-1.18,.45-1.71-.39-.61-1.07-.74-1.71-.45h0Z"/>
<path class="b" d="M27.43,157.97c.97,1.3,2.72,1.07,4.13,.82,1.57-.28,3.11-.8,4.55-1.47,.58-.27,1.23-.6,1.67-1.08s.49-1.27,0-1.77c-.46-.46-1.31-.5-1.77,0-.04,.04-.08,.08-.12,.12-.18,.2,.23-.14,.06-.04-.12,.07-.23,.15-.34,.22-.29,.17-.6,.32-.91,.46-.07,.03-.42,.18-.08,.04-.08,.03-.16,.07-.24,.1-.22,.09-.45,.17-.67,.25-.41,.15-.83,.28-1.25,.4s-.83,.22-1.26,.31c-.21,.04-.43,.07-.64,.11-.1,.01-.06,0,.13-.02-.05,0-.11,.01-.16,.02-.1,.01-.21,.02-.31,.03-.17,.01-.33,.02-.5,.02-.08,0-.15,0-.23,0-.31,0,.07-.04,.07,.01,0,.03-.32-.1-.35-.09,.14-.06,.31,.17,.1,.03,.2,.16,.25,.2,.16,.12-.08-.09-.04-.03,.12,.17-.4-.54-1.08-.82-1.71-.45-.53,.31-.86,1.17-.45,1.71h0Z"/>
<path class="b" d="M28.18,162.6c1.63,.53,3.55,.24,5.18-.11,1.72-.38,3.49-.99,4.85-2.14,.52-.44,.45-1.32,0-1.77-.51-.51-1.25-.44-1.77,0-.06,.05-.27,.17-.01,.01-.06,.04-.12,.09-.18,.13-.13,.09-.27,.17-.41,.25-.16,.09-.33,.18-.5,.26-.08,.04-.16,.07-.24,.11-.13,.06,.17-.06-.05,.02-.77,.3-1.55,.54-2.35,.71-.39,.08-.78,.16-1.17,.21,.27-.04-.1,0-.13,.01-.09,.01-.19,.02-.28,.03-.18,.02-.37,.03-.55,.03-.35,.01-.71,.01-1.06-.02-.08,0-.35-.08-.03,0-.06-.01-.11-.02-.17-.03-.16-.04-.31-.07-.47-.12-.64-.21-1.36,.24-1.54,.87-.19,.68,.23,1.33,.87,1.54h0Z"/>
<path class="b" d="M11.32,144.4c-.09,.06-.17,.11-.26,.17-.02,.01-.23,.11-.13,.07,.11-.05-.18,.05-.21,.06-.08,.02-.17,.04-.25,.06,.19-.04-.08,0-.12,.01-.11,0-.22,.01-.34,0-.17,0-.45-.02-.53-.03-.73-.09-1.67-.42-2.34-.74-.76-.36-1.48-.78-2.1-1.36-.77-.73-1.43-1.56-2.22-2.27-.5-.45-1.27-.49-1.77,0-.46,.46-.5,1.31,0,1.77,.87,.78,1.58,1.72,2.46,2.49,.82,.72,1.76,1.27,2.76,1.71,1.91,.83,4.43,1.51,6.31,.22,.56-.38,.81-1.1,.45-1.71-.32-.55-1.15-.83-1.71-.45h0Z"/>
<path class="b" d="M10.47,148.64c-2.64,1.35-6.13,.86-8.32-1.2-1.17-1.1-2.94,.66-1.77,1.77,3.02,2.85,7.66,3.48,11.35,1.59,.6-.31,.78-1.15,.45-1.71-.36-.61-1.11-.76-1.71-.45h0Z"/>
<path class="b" d="M204.19,112.05c13.42-10.66,19.91-27.39,21.75-44.02,1.06-9.57,.26-19.07,.23-28.65-.02-8.39,.94-17.09,5.47-24.37,2.39-3.85,5.72-6.86,9.79-8.84,4.33-2.11,9.16-3.04,13.89-3.73l-1.22-2.09c-2.75,3.27-6.68,5.02-10.13,7.4s-6.12,5.48-7.86,9.29c-3.94,8.65-2.9,18.23-1.22,27.3,1.9,10.3,3.93,20.59,3.2,31.13-.6,8.66-3.3,17-7.9,24.36-4.88,7.8-11.74,14.26-19.86,18.6-1.42,.76-.16,2.92,1.26,2.16,14.37-7.67,25.03-21.99,28.09-38.01,1.95-10.2,.92-20.65-.86-30.79s-4.54-19.8-1.91-29.59c1.24-4.6,3.67-8.84,7.54-11.72s8.32-4.66,11.43-8.35c.84-1,.02-2.27-1.22-2.09-8.16,1.2-16.55,3.42-22.24,9.8-5.31,5.95-7.68,13.89-8.42,21.69-.93,9.81,.4,19.67-.02,29.5-.4,9.3-1.98,18.62-5.48,27.28s-8.84,16.26-16.06,21.99c-1.26,1,.52,2.76,1.77,1.77h0Z"/></svg>