<?xml version="1.0" encoding="UTF-8"?><svg id="mouse" xmlns="http://www.w3.org/2000/svg" viewBox="0 0 257.42 248.95"><defs><style>.h{fill:#ff5733;stroke-width:2px;}</style></defs>


<!-- Body -->
<g id="body">
    <path class="h" d="M58.09,162.85c7.07,11.12,15.57,22.38,28.68,26.51,2.31,.73,3.29-2.89,1-3.62-12.11-3.81-19.93-14.55-26.44-24.79-1.29-2.03-4.54-.15-3.24,1.89h0Z"/>
    <path class="h" d="M101.75,195.07c5.96,5.71,14.26,8.45,21.8,11.38,8.12,3.15,16.64,5.8,25.45,5.68,4.88-.06,9.64-1.02,14.12-2.98,.93-.41,1.13-1.76,.67-2.57-.55-.96-1.64-1.08-2.57-.67-7.26,3.18-15.59,2.96-23.19,1.24s-15.54-4.93-22.94-8.15c-3.86-1.68-7.64-3.64-10.7-6.58-1.74-1.67-4.4,.98-2.65,2.65h0Z"/>
    <path class="h" d="M197.68,185.18c4.94-10.01,9.7-20.18,12.97-30.88s5.37-22.25,2.09-32.95c-.79-2.58-1.91-5.09-3.37-7.36-1.68-2.62-3.92-4.57-6.44-6.37-5.43-3.87-11.94-6.38-18.52-7.38-14.08-2.14-28.57-2.78-42.75-1.47-15.99,1.47-31.58,5.64-45.96,12.84-2.16,1.08-.26,4.32,1.89,3.24,12.17-6.1,25.36-9.99,38.85-11.75s27.58-1.5,41.27,.05c6.55,.74,12.87,1.85,18.78,4.93,2.74,1.43,5.32,3.16,7.59,5.26,1.79,1.66,3.05,3.97,4.02,6.19,4.19,9.58,2.51,20.85-.14,30.6-3.15,11.56-8.23,22.46-13.51,33.16-1.06,2.16,2.17,4.06,3.24,1.89h0Z"/>
</g>

<!-- Head -->
<g id="face">
    <path class="h" d="M67.42,100.89c-5.02,.21-10.15,.48-14.96,2.04s-9.48,4.18-13.65,7.03c-5.11,3.5-9.62,7.78-13.68,12.44s-8.17,9.64-10.95,15.2-4.03,11.52-1.88,17.28c1.97,5.27,6.21,9.55,11.29,11.91,11.38,5.27,25.02,2.38,35.89-2.79,3.19-1.52,6.24-3.3,9.16-5.28s5.67-3.98,8.05-6.46c2.12-2.2,4.14-4.56,6-6.99s3.18-5.1,4.33-7.91c.39-.94-.42-2.05-1.31-2.31-1.07-.31-1.92,.38-2.31,1.31-1.85,4.5-4.69,8.03-7.89,11.63-3.84,4.33-8.62,7.66-13.63,10.52-9.55,5.43-21.6,9.23-32.56,6.38-4.97-1.29-9.55-4.17-12.23-8.63-2.86-4.75-2.54-10.24-.41-15.21,2.25-5.25,5.93-9.86,9.57-14.21s7.57-8.44,12.05-11.89,9.23-6.3,14.33-8.11c4.76-1.69,9.79-1.97,14.79-2.19,2.4-.1,2.42-3.85,0-3.75h0Z"/><path class="h" d="M41.2,108.02c-.76,.1-1.25-.75-1.71-1.28-.63-.73-1.25-1.47-1.83-2.23-1.09-1.45-2.09-2.98-2.9-4.6-1.52-3.04-2.26-6.54-1.46-9.89,.66-2.77,2.94-7.04,6.35-5.49,2.92,1.33,5.05,4.1,6.2,7.03,1.67,4.25,1.55,8.93,1.15,13.39-.21,2.4,3.54,2.39,3.75,0,.45-4.99,.45-10.21-1.49-14.91-1.65-4.01-4.6-7.57-8.72-9.18-4.84-1.89-8.81,2.37-10.38,6.56s-1.01,8.97,.75,13.06c1.03,2.39,2.45,4.56,4.04,6.61,1.47,1.9,3.46,5.03,6.24,4.68,1-.13,1.88-.77,1.88-1.88,0-.91-.86-2-1.88-1.88h0Z"/>
    <path class="h" d="M37.59,89.63c2.06,1.27,3.63,3.09,4.72,5.38,.16,.35,.14,.28,.26,.59,.11,.29,.21,.58,.31,.87,.2,.62,.35,1.25,.46,1.9,.01,.08,.07,.46,.04,.21,.02,.17,.04,.34,.05,.51,.03,.31,.04,.61,.05,.92,.01,.69-.04,1.37-.13,2.05-.14,1.01,.96,1.88,1.88,1.88,1.13,0,1.74-.87,1.88-1.88,.82-6.13-2.37-12.46-7.6-15.68-2.06-1.27-3.95,1.98-1.89,3.24h0Z"/>
    <path class="h" d="M44.95,132.24c-.06-.22-.16-.44-.26-.64-.04-.08-.08-.15-.13-.22-.13-.18-.27-.37-.42-.54s-.36-.3-.55-.44c-.26-.19-.57-.31-.87-.43s-.64-.15-.95-.17-.65,.03-.95,.1c-.22,.05-.43,.16-.64,.25-.08,.04-.15,.08-.22,.12-.39,.27-.71,.56-.95,.98-.21,.36-.3,.69-.35,1.08-.06,.42-.04,.73,.05,1.16,.02,.07,.04,.15,.06,.22,.08,.22,.17,.45,.28,.66,.04,.07,.08,.13,.12,.19,.13,.18,.27,.38,.43,.53,.36,.34,.69,.52,1.15,.69,.07,.03,.13,.04,.2,.06,.23,.04,.47,.09,.7,.07,.5-.03,.89-.14,1.33-.37,.19-.1,.37-.26,.53-.39,.06-.05,.11-.1,.16-.16,.33-.39,.49-.68,.67-1.16,.12-.31,.15-.66,.18-.99,.03-.34-.03-.7-.09-1.04-.03-.19-.08-.37-.15-.55-.12-.32-.25-.65-.46-.93l-2.94,2.27c.35,.28,.6,.46,1.03,.6,.05,.02,.1,.03,.16,.04,.21,.03,.43,.08,.64,.07,.68-.04,1.32-.27,1.81-.77,.46-.47,.67-1.18,.48-1.82-.24-.79-.87-1.44-1.68-1.63-.4-.1-.84-.11-1.24,0-.2,.05-.39,.13-.57,.24-.14,.09-.29,.21-.42,.32-.02,.02-.05,.04-.07,.07-.33,.38-.55,.81-.55,1.33,0,.46,.2,1.01,.55,1.33s.83,.57,1.33,.55,1-.18,1.33-.55c.02-.03,.04-.05,.07-.07l-.38,.29s.05-.03,.08-.05l-.45,.19s.08-.03,.12-.03l-.5,.07c.06,0,.11,0,.16,0l-.5-.07s.09,.02,.13,.03l-.45-.19s.08,.04,.11,.06l-.38-.29s.06,.06,.09,.09l-.29-.38s.03,.05,.05,.08l-.19-.45s.02,.04,.02,.06l.48-1.82s-.06,.05-.09,.08l.38-.29s-.09,.06-.14,.08l.45-.19c-.06,.03-.13,.04-.19,.05l.5-.07c-.07,0-.13,0-.2,0l.5,.07c-.07,0-.13-.03-.19-.05l.45,.19s-.09-.05-.14-.08l.38,.29-.03-.03c-.17-.18-.37-.31-.6-.39-.22-.12-.46-.17-.72-.16l-.5,.07c-.24,.06-.46,.17-.64,.34-.31,.24-.58,.58-.67,.97-.11,.46-.1,1.04,.19,1.44,.1,.14,.19,.29,.25,.45l-.19-.45c.08,.2,.14,.4,.17,.62l-.07-.5c.03,.21,.03,.41,0,.62l.07-.5c-.02,.14-.06,.28-.11,.41l.19-.45c-.04,.1-.1,.2-.17,.29l.29-.38c-.06,.07-.12,.13-.19,.19l.38-.29c-.07,.05-.14,.09-.21,.12l.45-.19c-.08,.03-.16,.06-.25,.07l.5-.07c-.08,.01-.17,.01-.25,0l.5,.07c-.07-.01-.14-.03-.2-.06l.45,.19c-.09-.04-.16-.08-.24-.14l.38,.29c-.08-.07-.16-.14-.22-.22l.29,.38c-.08-.1-.14-.21-.2-.33l.19,.45c-.05-.12-.08-.25-.1-.38l.07,.5c-.01-.11-.01-.21,0-.32l-.07,.5c.01-.09,.04-.18,.07-.27l-.19,.45c.03-.08,.08-.15,.13-.22l-.29,.38c.06-.07,.12-.13,.19-.19l-.38,.29c.07-.05,.15-.1,.23-.13l-.45,.19c.1-.04,.21-.07,.32-.09l-.5,.07c.13-.02,.27-.02,.4,0l-.5-.07c.15,.02,.29,.06,.43,.12l-.45-.19c.13,.06,.25,.13,.36,.21l-.38-.29c.1,.08,.19,.17,.27,.27l-.29-.38c.07,.09,.13,.19,.17,.29l-.19-.45c.02,.05,.04,.11,.05,.16,.12,.45,.46,.88,.86,1.12s.99,.33,1.44,.19,.89-.43,1.12-.86,.32-.95,.19-1.44h0Z"/>
    <path class="h" d="M14.74,156.14c2.28,1.04,4.69,1.64,7.2,1.69,2.29,.04,5.07-.27,7.08-1.47,1.01-.6,1.93-1.54,2.18-2.72,.3-1.41-.45-2.79-1.7-3.45-1.05-.55-2.31-.77-3.47-.95s-2.43-.29-3.66-.26c-2.84,.07-5.57,.74-8.17,1.89-1.42,.63-1.1,3.18,.45,3.43,2.44,.4,4.89,.73,7.35,1,2.02,.22,4.94,.62,5.62-1.97,.19-.72-.11-1.8-.86-2.12-1.68-.72-3.31-.93-5.11-.58-.99,.19-1.56,1.39-1.31,2.31,.29,1.04,1.31,1.5,2.31,1.31,.71-.14,1.55-.09,2.22,.2l-.86-2.12c.06-.25,.35-.43,.52-.57,.15-.12-.24,.04,.08,0-.32,.04-.64,0-.96-.03-.92-.09-1.83-.19-2.75-.3-1.76-.21-3.51-.46-5.25-.75l.45,3.43c2.02-.9,4.22-1.34,6.39-1.38,1.06-.02,2.15,.05,3.15,.23,.56,.1,1.12,.22,1.67,.38,0,0,.58,.17,.3,.09,.19,.12,.23,.13,.1,.04-.13-.13-.19-.3-.18-.5,0-.1,.03-.19,.08-.28-.11,.17-.13,.21-.07,.12,.19-.15-.47,.37-.23,.2-.11,.08-.51,.29-.51,.29-.03,.01-.5,.16-.66,.21-1.04,.31-2.04,.5-3.1,.55-2.2,.12-4.39-.23-6.41-1.16-.92-.42-2.02-.26-2.57,.67-.47,.81-.25,2.14,.67,2.57h0Z"/>
    <path class="h" d="M27.48,158.89c.65,.88,1.47,1.22,2.54,1.31,.76,.06,1.55-.07,2.3-.2,1.62-.29,3.21-.84,4.7-1.53,.63-.29,1.32-.66,1.79-1.18,.66-.73,.77-1.94,0-2.65-.72-.66-1.95-.78-2.65,0-.04,.04-.08,.07-.12,.12-.2,.26,.4-.27,.19-.14-.12,.07-.23,.15-.34,.22-.29,.17-.6,.32-.91,.46-.14,.06-.54,.21,.07-.02-.08,.03-.16,.07-.24,.1-.22,.09-.45,.17-.67,.25-.41,.15-.83,.28-1.25,.4s-.83,.22-1.26,.31c-.21,.04-.43,.07-.64,.11-.16,.03,.56-.06,.13-.02-.1,0-.21,.02-.31,.03-.17,.01-.33,.02-.5,.02-.08,0-.15,0-.23,0-.24,0-.26-.15,.23,.04-.1-.04-.25-.08-.35-.09,.45,.07,.45,.22,.25,.09,.32,.26,.41,.33,.29,.22-.12-.12-.05-.03,.22,.29-.3-.41-.61-.72-1.12-.86-.45-.12-1.05-.07-1.44,.19-.77,.5-1.3,1.73-.67,2.57h0Z"/>
    <path class="h" d="M28.6,163.82c1.73,.56,3.78,.27,5.51-.11,1.83-.4,3.68-1.08,5.13-2.3,.75-.63,.7-2.01,0-2.65-.8-.74-1.85-.68-2.65,0-.14,.12-.31,.16,.11-.08-.06,.04-.12,.09-.18,.13-.13,.09-.27,.17-.41,.25-.16,.09-.33,.18-.5,.26-.08,.04-.16,.07-.24,.11-.21,.1,.41-.16,.09-.04-.77,.29-1.55,.54-2.35,.71-.38,.08-.79,.11-1.17,.21,.49-.13,.2-.03,.04,0-.09,.01-.19,.02-.28,.03-.18,.02-.37,.03-.55,.03-.35,.01-.71,.01-1.06-.02-.48-.04,.41,.1-.04,0-.16-.04-.31-.07-.47-.12-.93-.3-2.09,.35-2.31,1.31-.23,1.03,.31,1.98,1.31,2.31h0Z"/>
    <path class="h" d="M11.6,144.47c-.09,.06-.18,.11-.26,.17-.11,.07-.25,.05-.06,.04,.36-.02-.4,.05-.38,.08,0,.01,.41-.03,.04-.01-.11,0-.22,.01-.34,0-.09,0-.18,0-.28-.01-.06,0-.46-.05-.17-.01s-.16-.03-.18-.04c-.1-.02-.19-.04-.29-.06-.22-.05-.43-.11-.64-.18s-.42-.15-.63-.22c-.45-.17,.22,.11-.03-.01-.11-.05-.22-.1-.33-.15-.38-.18-.74-.38-1.1-.59-.07-.04-.15-.09-.22-.14,0,0-.4-.28-.22-.14s-.2-.17-.19-.17c-.08-.07-.16-.15-.24-.22-.77-.73-1.43-1.56-2.22-2.27-.73-.66-1.94-.77-2.65,0-.66,.72-.78,1.95,0,2.65,.87,.78,1.58,1.72,2.46,2.49s1.84,1.35,2.89,1.81c2.11,.92,4.87,1.64,6.94,.22,.81-.55,1.25-1.67,.67-2.57-.52-.8-1.7-1.27-2.57-.67h0Z"/>
    <path class="h" d="M10.75,148.71c-.08,.04-.17,.09-.26,.13-.05,.02-.43,.17-.17,.08,.24-.08-.06,.02-.11,.03-.09,.03-.18,.06-.27,.09-.39,.12-.78,.21-1.18,.28-.36,.07,.24-.02,0,0-.09,0-.19,.02-.28,.03-.19,.01-.38,.02-.57,.02-.21,0-.43,0-.64-.02-.1,0-.19-.01-.29-.02-.06,0-.46-.07-.18-.02,.26,.05-.05-.01-.1-.02-.09-.02-.19-.04-.28-.06-.21-.05-.42-.1-.62-.16-.18-.05-.36-.11-.54-.18-.05-.02-.24-.06-.27-.1,.21,.09,.25,.11,.12,.05-.04-.02-.09-.04-.13-.06-.37-.17-.72-.37-1.06-.59-.12-.08-.5-.38-.2-.13-.18-.15-.36-.31-.54-.47-.71-.67-1.95-.76-2.65,0s-.76,1.93,0,2.65c3.23,3.05,8.16,3.71,12.1,1.69,.87-.45,1.2-1.75,.67-2.57-.58-.89-1.63-1.15-2.57-.67h0Z"/>
</g>




<!-- front ear -->
<g id="ear">
    <path class="h" d="M75.95,114.37c-3.09-2.08-4.79-5.56-5.88-9.02-1.3-4.15-2.16-8.62-1.88-12.98,.3-4.72,2.64-8.69,5.04-12.63,1.94-3.19,3.96-6.38,6.64-9.01,2.88-2.83,6.29-4.37,10.34-4.55,2.14-.09,4.34-.03,6.47,.2,1.82,.2,3.78,.64,5.26,1.79,1.58,1.22,2.41,3.2,3.05,5.03,.71,2.05,1.22,4.19,1.45,6.34,.48,4.46,.05,8.96-1.12,13.29-2.53,9.42-8.38,17.52-14.95,24.56-1.65,1.76,1,4.42,2.65,2.65,6.62-7.09,12.48-15.17,15.42-24.52,1.5-4.78,2.21-9.89,1.85-14.89-.34-4.69-1.44-10.14-4.48-13.88s-7.9-4.18-12.31-4.32c-4.91-.16-9.64,.46-13.69,3.44-3.45,2.54-6.03,6-8.33,9.57-2.63,4.09-5.49,8.42-6.54,13.23-1.22,5.58-.3,11.53,1.28,16.95,1.37,4.71,3.66,9.18,7.82,11.98,2.01,1.35,3.89-1.9,1.89-3.24h0Z"/>
    <path class="h" d="M78.79,92.61c-.44,2.36-.77,4.77-.21,7.14,.47,2,1.63,3.85,3.37,4.99s4.31,1.39,6.34,.68,3.72-2.16,4.93-3.97c.55-.82,.19-2.11-.67-2.57-.94-.5-1.98-.2-2.57,.67-.07,.1-.13,.2-.2,.3-.12,.16-.14,.19-.07,.1,.09-.12-.21,.24-.26,.29-.26,.29-.54,.55-.84,.81s.16-.08-.19,.14c-.15,.1-.3,.2-.45,.29s-.31,.17-.47,.25c-.37,.19,.15-.02-.21,.08-.21,.06-.41,.13-.62,.18-.07,.02-.56,.09-.39,.08,.13-.02,.09-.02-.12,0-.12,0-.25,.01-.37,.01-.19,0-.37,0-.56-.03,.36,.04-.2-.05-.23-.05-.18-.04-.35-.1-.53-.15-.37-.12,.08,.08-.23-.1-.18-.11-.36-.21-.53-.33-.11-.08-.09-.07,.04,.03-.07-.05-.13-.11-.19-.17-.15-.14-.28-.28-.41-.43-.26-.28,.09,.19-.12-.16-.09-.15-.19-.29-.27-.44s-.16-.3-.24-.46c-.19-.38,.04,.18-.07-.19s-.22-.71-.3-1.09c-.3-1.5-.02-3.32,.27-4.89,.18-.96-.26-2.07-1.31-2.31-.92-.21-2.12,.28-2.31,1.31h0Z"/>
</g>


<!-- Front leg -->
<g id="front-leg">
    <path class="h" d="M87.29,173.49c.41,8.57-3.11,16.53-7.47,23.71-4.73,7.8-10.23,15.2-15.81,22.41-1.29,1.66,.26,3.91,2.27,2.94l7.36-3.53-2.57-2.57-3.2,4.2c-1.28,1.68,1.64,3.95,2.94,2.27,1.77-2.27,3.75-4.32,5.96-6.16l-3.2-1.33c.13,2.63-.09,5.2-.72,7.76-.43,1.74,1.82,3.26,3.13,1.82l5.88-6.42-3.2-1.33-.55,7.65c-.13,1.79,2.74,2.64,3.49,.95,1.05-2.35,2.39-4.53,4.1-6.46l-3.2-1.33,.32,6.65c.09,1.99,2.39,2.38,3.49,.95,10.96-14.28,18.72-30.95,22.63-48.51,.52-2.35-3.09-3.36-3.62-1-3.85,17.29-11.47,33.56-22.25,47.62l3.49,.95-.32-6.65c-.07-1.52-2.06-2.61-3.2-1.33-1.92,2.17-3.51,4.57-4.69,7.22l3.49,.95,.55-7.65c.12-1.61-2.14-2.49-3.2-1.33l-5.88,6.42,3.13,1.82c.71-2.87,1.01-5.81,.86-8.76-.09-1.7-1.95-2.37-3.2-1.33-2.21,1.84-4.19,3.9-5.96,6.16l2.94,2.27,3.2-4.2c1.25-1.64-1.08-3.28-2.57-2.57l-7.36,3.53,2.27,2.94c5.87-7.58,11.7-15.32,16.63-23.55,4.57-7.62,8.19-16.17,7.75-25.23-.12-2.4-3.87-2.42-3.75,0h0Z"/>
</g>


<!-- Tail -->
<g id="tail">
    <path class="h" d="M205.23,113.1c13.55-10.77,20.07-27.68,21.93-44.47,1.06-9.57,.26-19.07,.23-28.65-.02-8.29,.91-16.87,5.38-24.05,2.34-3.76,5.58-6.68,9.56-8.62,4.28-2.09,9.07-2.98,13.75-3.67l-1.82-3.13c-2.72,3.23-6.59,4.95-10.01,7.3s-6.3,5.61-8.08,9.51c-4.02,8.82-2.99,18.52-1.29,27.78,1.89,10.25,3.9,20.48,3.18,30.96-.59,8.55-3.27,16.78-7.82,24.05-4.83,7.71-11.61,14.09-19.63,18.37-2.13,1.14-.24,4.38,1.89,3.24,14.5-7.74,25.29-22.22,28.38-38.39,1.97-10.32,.94-20.86-.86-31.12-1.68-9.57-4.51-19.59-1.91-29.26,1.19-4.44,3.52-8.56,7.25-11.34s8.41-4.71,11.55-8.45c1.27-1.5,.04-3.41-1.82-3.13-8.26,1.22-16.75,3.5-22.52,9.96-5.43,6.08-7.84,14.16-8.6,22.14-.93,9.81,.4,19.67-.02,29.5-.39,9.25-1.98,18.51-5.46,27.12s-8.77,16.05-15.9,21.72c-.8,.64-.65,1.99,0,2.65,.77,.79,1.86,.63,2.65,0h0Z"/>
</g>

<!-- Back leg -->
<g id="back-leg">
    <path class="h" d="M160.45,181.13c-1.16,7.66-2.37,15.72,.14,23.25,1.05,3.15,2.67,6.13,4.97,8.55s5.16,3.91,8.25,5.05c3.37,1.25,7.11,2.05,9.97,4.35,.8,.64,1.87,.76,2.65,0,.66-.65,.79-2.02,0-2.65-3.22-2.59-7.07-3.7-10.9-5.05-3.6-1.27-6.75-3.11-8.92-6.34-5.2-7.73-3.85-17.48-2.54-26.16,.15-1.01-.25-2-1.31-2.31-.88-.25-2.16,.31-2.31,1.31h0Z"/>
    <path class="h" d="M185.18,219.03c-6.36,.62-12.94,1.61-18.51,4.97-4.66,2.82-8.52,7.29-9.61,12.74-.22,1.09,.51,2.49,1.81,2.37,6.58-.59,12.89-2.75,18.39-6.42,2.03-1.36,.29-4.23-1.89-3.24-2.78,1.26-5.3,3.12-7.3,5.43-1.7,1.97-4.64,5.51-3.35,8.29,1.59,3.42,5.96,1.07,8.26-.13,3-1.56,5.72-3.65,8.07-6.07,1.42-1.47-.5-4.25-2.27-2.94-1.98,1.46-3.76,3.1-5.28,5.03-1.32,1.68-2.84,3.59-2.47,5.87,.4,2.47,2.91,3.17,4.79,1.7,2.18-1.71,4.22-3.66,6.31-5.48l-2.94-2.27c-1.49,2.34-2.65,4.86-3.5,7.5-.24,.74,.15,1.77,.86,2.12,1.75,.85,3.35,.43,5.02-.4s3.28-1.73,4.87-2.65c3.2-1.85,6.3-3.88,9.29-6.06,6-4.38,11.53-9.34,16.51-14.86,1.61-1.79-1.03-4.45-2.65-2.65-4.47,4.95-9.39,9.51-14.72,13.51-2.62,1.96-5.33,3.8-8.12,5.51-1.46,.89-2.93,1.75-4.43,2.57-.75,.41-1.5,.81-2.26,1.2-.31,.16-1.24,.77-1.62,.59l.86,2.12c.76-2.34,1.81-4.53,3.12-6.6,1.19-1.88-1.4-3.61-2.94-2.27l-3.91,3.4c-.23,.2-2.16,1.58-2.13,1.85l1.29,.67s-.04,0-.01-.12c.04-.06,.05-.45,.07-.49,.4-1.2,1.6-2.44,2.43-3.37,1.05-1.17,2.2-2.24,3.46-3.17l-2.27-2.94c-1.65,1.71-3.46,3.2-5.48,4.45-1.01,.62-2.06,1.19-3.15,1.68-.48,.22-.96,.43-1.46,.6-.09,.03-.57,.11-.61,.17-.21,0-.15,.08,.18,.25,.25,.36,.37,.32,.38-.11,.58-.7,.93-1.76,1.46-2.54,.6-.88,1.31-1.68,2.06-2.43,1.59-1.58,3.44-2.79,5.48-3.71l-1.89-3.24c-4.93,3.3-10.58,5.38-16.49,5.91l1.81,2.37c2.23-11.13,14.91-14.02,24.5-14.95,1.01-.1,1.88-.79,1.88-1.88,0-.94-.86-1.97-1.88-1.88h0Z"/>
    <path class="h" d="M210.67,226.19c3.45-2.4,5.92-5.91,6.45-10.14,.49-3.97-.94-8.03-3.7-10.9-4.13-4.29-10.21-6.02-14.33-10.28-2.18-2.25-2.7-5.06-1.98-8.14,.55-2.35-3.07-3.35-3.62-1-.72,3.09-.65,6.28,.92,9.11,1.36,2.47,3.64,4.28,5.95,5.82,4.74,3.15,11.45,5.63,12.89,11.77,.96,4.1-1.11,8.18-4.47,10.52-1.97,1.37-.09,4.62,1.89,3.24h0Z"/>
</g> 


<!-- backward front leg -->
<g id="front-sec-leg">
    <path class="h" d="M67.04,175.14c-7.14,9.69-17.12,17.28-28.36,21.58l1.82,3.13c1.25-1.28,3.1-1.4,4.57-.42l-.38-2.94-5.62,6.35c-1.14,1.29-.07,3.8,1.82,3.13l6.94-2.45-2.12-2.75-3.46,4.85c-.54,.76-.2,1.89,.48,2.42,.78,.61,1.73,.45,2.46-.15l2.56-2.1-3.2-1.33-.11,3.07c-.05,1.3,1.23,2.02,2.37,1.81l.81-.15-2.12-.86c1.8,2.98,5.43,3.86,8.69,3.18,3.59-.75,6.55-3.41,8.79-6.18,2.65-3.28,4.93-6.87,7.33-10.33l8.07-11.67c1.38-1.99-1.87-3.87-3.24-1.89-4.48,6.48-8.87,13.04-13.45,19.44-1.73,2.42-3.7,4.86-6.38,6.26-1.94,1.01-5.22,1.53-6.56-.7-.46-.76-1.28-1.02-2.12-.86l-.81,.15,2.37,1.81,.11-3.07c.06-1.76-2.03-2.29-3.2-1.33l-2.56,2.1,2.94,2.27,3.46-4.85c.93-1.31-.62-3.28-2.12-2.75l-6.94,2.45,1.82,3.13,5.62-6.35c.83-.94,.67-2.25-.38-2.94-2.83-1.89-6.75-1.42-9.11,1-1.22,1.25,0,3.83,1.82,3.13,12.23-4.68,22.83-12.76,30.6-23.3,.61-.82,.13-2.08-.67-2.57-.95-.57-1.97-.14-2.57,.67h0Z"/>
</g>

</svg>